<svg width="556" height="126" viewBox="0 0 556 126" fill="none" xmlns="http://www.w3.org/2000/svg">
<rect x="0.5" y="0.5" width="555" height="125" rx="9.5" stroke="#E5E5ED"/>
<circle cx="277.5" cy="34.5" r="17.5" fill="#E9ECF5"/>
<path d="M284.428 31.2067C283.817 29.8027 282.763 28.6378 281.427 27.8904C280.09 27.1431 278.545 26.8545 277.029 27.069C275.513 27.2835 274.109 27.9892 273.033 29.0779C271.956 30.1666 271.266 31.5783 271.068 33.0967C270.115 33.325 269.279 33.8955 268.718 34.6999C268.158 35.5043 267.912 36.4864 268.028 37.4599C268.144 38.4334 268.614 39.3304 269.347 39.9806C270.081 40.6307 271.028 40.9888 272.008 40.9867C272.274 40.9867 272.528 40.8814 272.716 40.6938C272.903 40.5063 273.008 40.2519 273.008 39.9867C273.008 39.7215 272.903 39.4671 272.716 39.2796C272.528 39.0921 272.274 38.9867 272.008 38.9867C271.478 38.9867 270.969 38.776 270.594 38.4009C270.219 38.0259 270.008 37.5171 270.008 36.9867C270.008 36.4563 270.219 35.9476 270.594 35.5725C270.969 35.1974 271.478 34.9867 272.008 34.9867C272.274 34.9867 272.528 34.8814 272.716 34.6938C272.903 34.5063 273.008 34.2519 273.008 33.9867C273.011 32.804 273.433 31.6605 274.199 30.7593C274.965 29.8581 276.025 29.2577 277.192 29.0646C278.359 28.8715 279.557 29.0983 280.572 29.7047C281.587 30.3111 282.355 31.2579 282.738 32.3767C282.796 32.5486 282.898 32.7016 283.036 32.8196C283.173 32.9376 283.34 33.0161 283.518 33.0467C284.184 33.1726 284.788 33.5203 285.231 34.0332C285.675 34.5462 285.931 35.1941 285.959 35.8714C285.987 36.5486 285.784 37.2154 285.385 37.7629C284.985 38.3105 284.412 38.7066 283.758 38.8867C283.501 38.953 283.281 39.1188 283.146 39.3476C283.011 39.5764 282.972 39.8495 283.038 40.1067C283.105 40.364 283.271 40.5844 283.499 40.7194C283.728 40.8544 284.001 40.893 284.258 40.8267C285.311 40.5486 286.244 39.9347 286.915 39.0782C287.587 38.2217 287.961 37.1693 287.98 36.081C288 34.9926 287.663 33.9278 287.022 33.048C286.381 32.1683 285.47 31.5218 284.428 31.2067ZM278.718 33.2767C278.623 33.1857 278.511 33.1143 278.388 33.0667C278.145 32.9667 277.872 32.9667 277.628 33.0667C277.506 33.1143 277.394 33.1857 277.298 33.2767L274.298 36.2767C274.11 36.465 274.004 36.7204 274.004 36.9867C274.004 37.253 274.11 37.5084 274.298 37.6967C274.487 37.885 274.742 37.9908 275.008 37.9908C275.275 37.9908 275.53 37.885 275.718 37.6967L277.008 36.3967V41.9867C277.008 42.2519 277.114 42.5063 277.301 42.6938C277.489 42.8814 277.743 42.9867 278.008 42.9867C278.274 42.9867 278.528 42.8814 278.716 42.6938C278.903 42.5063 279.008 42.2519 279.008 41.9867V36.3967L280.298 37.6967C280.391 37.7904 280.502 37.8648 280.624 37.9156C280.746 37.9664 280.876 37.9925 281.008 37.9925C281.14 37.9925 281.271 37.9664 281.393 37.9156C281.515 37.8648 281.625 37.7904 281.718 37.6967C281.812 37.6037 281.887 37.4931 281.937 37.3713C281.988 37.2494 282.014 37.1187 282.014 36.9867C282.014 36.8547 281.988 36.724 281.937 36.6021C281.887 36.4803 281.812 36.3697 281.718 36.2767L278.718 33.2767Z" fill="#232360"/>
<path d="M183.284 84.156C182.383 84.156 181.603 83.961 180.944 83.571C180.294 83.1723 179.792 82.622 179.436 81.92C179.081 81.2093 178.903 80.3903 178.903 79.463C178.903 78.527 179.081 77.708 179.436 77.006C179.792 76.2953 180.294 75.7407 180.944 75.342C181.603 74.9433 182.383 74.744 183.284 74.744C184.35 74.744 185.221 75.004 185.897 75.524C186.573 76.044 187.002 76.772 187.184 77.708H185.65C185.529 77.1793 185.269 76.759 184.87 76.447C184.472 76.135 183.939 75.979 183.271 75.979C182.361 75.979 181.642 76.291 181.113 76.915C180.585 77.5303 180.32 78.3797 180.32 79.463C180.32 80.5377 180.585 81.3827 181.113 81.998C181.642 82.6133 182.361 82.921 183.271 82.921C183.939 82.921 184.472 82.7737 184.87 82.479C185.269 82.1843 185.529 81.7813 185.65 81.27H187.184C187.002 82.1713 186.573 82.8777 185.897 83.389C185.221 83.9003 184.35 84.156 183.284 84.156ZM188.647 84V74.64H190.025V84H188.647ZM192.55 76.33C192.29 76.33 192.073 76.252 191.9 76.096C191.735 75.9313 191.653 75.7277 191.653 75.485C191.653 75.2423 191.735 75.043 191.9 74.887C192.073 74.7223 192.29 74.64 192.55 74.64C192.81 74.64 193.022 74.7223 193.187 74.887C193.36 75.043 193.447 75.2423 193.447 75.485C193.447 75.7277 193.36 75.9313 193.187 76.096C193.022 76.252 192.81 76.33 192.55 76.33ZM191.861 84V77.552H193.239V84H191.861ZM198.113 84.156C197.48 84.156 196.913 84.013 196.41 83.727C195.916 83.441 195.526 83.0467 195.24 82.544C194.963 82.0327 194.824 81.4433 194.824 80.776C194.824 80.1087 194.963 79.5237 195.24 79.021C195.526 78.5097 195.916 78.111 196.41 77.825C196.913 77.539 197.48 77.396 198.113 77.396C198.91 77.396 199.578 77.604 200.115 78.02C200.661 78.436 201.012 78.9993 201.168 79.71H199.725C199.638 79.3547 199.448 79.0773 199.153 78.878C198.858 78.6787 198.512 78.579 198.113 78.579C197.775 78.579 197.463 78.6657 197.177 78.839C196.891 79.0037 196.661 79.2507 196.488 79.58C196.315 79.9007 196.228 80.2993 196.228 80.776C196.228 81.2527 196.315 81.6557 196.488 81.985C196.661 82.3057 196.891 82.5527 197.177 82.726C197.463 82.8993 197.775 82.986 198.113 82.986C198.512 82.986 198.858 82.8863 199.153 82.687C199.448 82.4877 199.638 82.206 199.725 81.842H201.168C201.021 82.5353 200.674 83.0943 200.128 83.519C199.582 83.9437 198.91 84.156 198.113 84.156ZM202.663 84V74.64H204.041V80.217L206.511 77.552H208.162L205.419 80.477L208.565 84H206.823L204.041 80.698V84H202.663ZM215.612 84C214.979 84 214.476 83.8483 214.104 83.545C213.731 83.233 213.545 82.6827 213.545 81.894V78.709H212.44V77.552H213.545L213.714 75.914H214.923V77.552H216.743V78.709H214.923V81.894C214.923 82.2493 214.996 82.4963 215.144 82.635C215.3 82.765 215.564 82.83 215.937 82.83H216.678V84H215.612ZM221.014 84.156C220.399 84.156 219.844 84.0173 219.35 83.74C218.865 83.454 218.479 83.0597 218.193 82.557C217.907 82.0457 217.764 81.452 217.764 80.776C217.764 80.1 217.907 79.5107 218.193 79.008C218.488 78.4967 218.882 78.1023 219.376 77.825C219.87 77.539 220.421 77.396 221.027 77.396C221.643 77.396 222.193 77.539 222.678 77.825C223.172 78.1023 223.562 78.4967 223.848 79.008C224.143 79.5107 224.29 80.1 224.29 80.776C224.29 81.452 224.143 82.0457 223.848 82.557C223.562 83.0597 223.172 83.454 222.678 83.74C222.184 84.0173 221.63 84.156 221.014 84.156ZM221.014 82.973C221.344 82.973 221.647 82.8907 221.924 82.726C222.21 82.5613 222.44 82.3187 222.613 81.998C222.787 81.6687 222.873 81.2613 222.873 80.776C222.873 80.2907 222.787 79.8877 222.613 79.567C222.449 79.2377 222.223 78.9907 221.937 78.826C221.66 78.6613 221.357 78.579 221.027 78.579C220.698 78.579 220.39 78.6613 220.104 78.826C219.827 78.9907 219.602 79.2377 219.428 79.567C219.255 79.8877 219.168 80.2907 219.168 80.776C219.168 81.2613 219.255 81.6687 219.428 81.998C219.602 82.3187 219.827 82.5613 220.104 82.726C220.382 82.8907 220.685 82.973 221.014 82.973ZM231.435 84.156C230.655 84.156 230.04 83.9133 229.589 83.428C229.147 82.9427 228.926 82.219 228.926 81.257V77.552H230.304V81.114C230.304 82.362 230.815 82.986 231.838 82.986C232.349 82.986 232.77 82.804 233.099 82.44C233.428 82.076 233.593 81.556 233.593 80.88V77.552H234.971V84H233.749L233.645 82.869C233.446 83.2677 233.151 83.584 232.761 83.818C232.38 84.0433 231.938 84.156 231.435 84.156ZM236.724 86.86V77.552H237.959L238.102 78.553C238.31 78.2497 238.596 77.981 238.96 77.747C239.324 77.513 239.792 77.396 240.364 77.396C240.988 77.396 241.538 77.5433 242.015 77.838C242.492 78.1327 242.864 78.5357 243.133 79.047C243.41 79.5583 243.549 80.139 243.549 80.789C243.549 81.439 243.41 82.0197 243.133 82.531C242.864 83.0337 242.492 83.4323 242.015 83.727C241.538 84.013 240.984 84.156 240.351 84.156C239.848 84.156 239.402 84.0563 239.012 83.857C238.631 83.6577 238.327 83.376 238.102 83.012V86.86H236.724ZM240.117 82.96C240.706 82.96 241.192 82.7607 241.573 82.362C241.954 81.9547 242.145 81.426 242.145 80.776C242.145 80.3513 242.058 79.9743 241.885 79.645C241.712 79.3157 241.473 79.06 241.17 78.878C240.867 78.6873 240.516 78.592 240.117 78.592C239.528 78.592 239.042 78.7957 238.661 79.203C238.288 79.6103 238.102 80.1347 238.102 80.776C238.102 81.426 238.288 81.9547 238.661 82.362C239.042 82.7607 239.528 82.96 240.117 82.96ZM245.039 84V74.64H246.417V84H245.039ZM251.179 84.156C250.563 84.156 250.009 84.0173 249.515 83.74C249.029 83.454 248.644 83.0597 248.358 82.557C248.072 82.0457 247.929 81.452 247.929 80.776C247.929 80.1 248.072 79.5107 248.358 79.008C248.652 78.4967 249.047 78.1023 249.541 77.825C250.035 77.539 250.585 77.396 251.192 77.396C251.807 77.396 252.357 77.539 252.843 77.825C253.337 78.1023 253.727 78.4967 254.013 79.008C254.307 79.5107 254.455 80.1 254.455 80.776C254.455 81.452 254.307 82.0457 254.013 82.557C253.727 83.0597 253.337 83.454 252.843 83.74C252.349 84.0173 251.794 84.156 251.179 84.156ZM251.179 82.973C251.508 82.973 251.811 82.8907 252.089 82.726C252.375 82.5613 252.604 82.3187 252.778 81.998C252.951 81.6687 253.038 81.2613 253.038 80.776C253.038 80.2907 252.951 79.8877 252.778 79.567C252.613 79.2377 252.388 78.9907 252.102 78.826C251.824 78.6613 251.521 78.579 251.192 78.579C250.862 78.579 250.555 78.6613 250.269 78.826C249.991 78.9907 249.766 79.2377 249.593 79.567C249.419 79.8877 249.333 80.2907 249.333 80.776C249.333 81.2613 249.419 81.6687 249.593 81.998C249.766 82.3187 249.991 82.5613 250.269 82.726C250.546 82.8907 250.849 82.973 251.179 82.973ZM258.129 84.156C257.583 84.156 257.132 84.065 256.777 83.883C256.421 83.701 256.157 83.4627 255.984 83.168C255.81 82.8647 255.724 82.5353 255.724 82.18C255.724 81.556 255.966 81.062 256.452 80.698C256.937 80.334 257.63 80.152 258.532 80.152H260.222V80.035C260.222 79.5323 260.083 79.1553 259.806 78.904C259.537 78.6527 259.186 78.527 258.753 78.527C258.371 78.527 258.038 78.6223 257.752 78.813C257.474 78.995 257.305 79.268 257.245 79.632H255.867C255.91 79.164 256.066 78.7653 256.335 78.436C256.612 78.098 256.959 77.8423 257.375 77.669C257.799 77.487 258.263 77.396 258.766 77.396C259.667 77.396 260.365 77.6343 260.859 78.111C261.353 78.579 261.6 79.2203 261.6 80.035V84H260.404L260.287 82.895C260.105 83.2503 259.84 83.5493 259.494 83.792C259.147 84.0347 258.692 84.156 258.129 84.156ZM258.402 83.038C258.774 83.038 259.086 82.9513 259.338 82.778C259.598 82.596 259.797 82.3577 259.936 82.063C260.083 81.7683 260.174 81.4433 260.209 81.088H258.675C258.129 81.088 257.739 81.1833 257.505 81.374C257.279 81.5647 257.167 81.803 257.167 82.089C257.167 82.3837 257.275 82.6177 257.492 82.791C257.717 82.9557 258.02 83.038 258.402 83.038ZM266.144 84.156C265.52 84.156 264.97 84.0087 264.493 83.714C264.017 83.4193 263.644 83.0163 263.375 82.505C263.107 81.9937 262.972 81.413 262.972 80.763C262.972 80.113 263.107 79.5367 263.375 79.034C263.644 78.5227 264.017 78.124 264.493 77.838C264.979 77.5433 265.533 77.396 266.157 77.396C266.669 77.396 267.115 77.4957 267.496 77.695C267.886 77.8943 268.19 78.176 268.406 78.54V74.64H269.784V84H268.549L268.406 82.999C268.198 83.3023 267.912 83.571 267.548 83.805C267.184 84.039 266.716 84.156 266.144 84.156ZM266.391 82.96C266.981 82.96 267.462 82.7563 267.834 82.349C268.216 81.9417 268.406 81.4173 268.406 80.776C268.406 80.126 268.216 79.6017 267.834 79.203C267.462 78.7957 266.981 78.592 266.391 78.592C265.802 78.592 265.317 78.7957 264.935 79.203C264.554 79.6017 264.363 80.126 264.363 80.776C264.363 81.2007 264.45 81.5777 264.623 81.907C264.797 82.2363 265.035 82.4963 265.338 82.687C265.65 82.869 266.001 82.96 266.391 82.96ZM277.813 84.156C277.198 84.156 276.643 84.0173 276.149 83.74C275.664 83.454 275.278 83.0597 274.992 82.557C274.706 82.0457 274.563 81.452 274.563 80.776C274.563 80.1 274.706 79.5107 274.992 79.008C275.287 78.4967 275.681 78.1023 276.175 77.825C276.669 77.539 277.22 77.396 277.826 77.396C278.442 77.396 278.992 77.539 279.477 77.825C279.971 78.1023 280.361 78.4967 280.647 79.008C280.942 79.5107 281.089 80.1 281.089 80.776C281.089 81.452 280.942 82.0457 280.647 82.557C280.361 83.0597 279.971 83.454 279.477 83.74C278.983 84.0173 278.429 84.156 277.813 84.156ZM277.813 82.973C278.143 82.973 278.446 82.8907 278.723 82.726C279.009 82.5613 279.239 82.3187 279.412 81.998C279.586 81.6687 279.672 81.2613 279.672 80.776C279.672 80.2907 279.586 79.8877 279.412 79.567C279.248 79.2377 279.022 78.9907 278.736 78.826C278.459 78.6613 278.156 78.579 277.826 78.579C277.497 78.579 277.189 78.6613 276.903 78.826C276.626 78.9907 276.401 79.2377 276.227 79.567C276.054 79.8877 275.967 80.2907 275.967 80.776C275.967 81.2613 276.054 81.6687 276.227 81.998C276.401 82.3187 276.626 82.5613 276.903 82.726C277.181 82.8907 277.484 82.973 277.813 82.973ZM282.579 84V77.552H283.814L283.931 78.774C284.157 78.3493 284.469 78.0157 284.867 77.773C285.275 77.5217 285.764 77.396 286.336 77.396V78.839H285.959C285.578 78.839 285.236 78.904 284.932 79.034C284.638 79.1553 284.399 79.3677 284.217 79.671C284.044 79.9657 283.957 80.3773 283.957 80.906V84H282.579ZM293.731 84.156C293.107 84.156 292.557 84.0087 292.08 83.714C291.604 83.4193 291.231 83.0163 290.962 82.505C290.694 81.9937 290.559 81.413 290.559 80.763C290.559 80.113 290.694 79.5367 290.962 79.034C291.231 78.5227 291.604 78.124 292.08 77.838C292.566 77.5433 293.12 77.396 293.744 77.396C294.256 77.396 294.702 77.4957 295.083 77.695C295.473 77.8943 295.777 78.176 295.993 78.54V74.64H297.371V84H296.136L295.993 82.999C295.785 83.3023 295.499 83.571 295.135 83.805C294.771 84.039 294.303 84.156 293.731 84.156ZM293.978 82.96C294.568 82.96 295.049 82.7563 295.421 82.349C295.803 81.9417 295.993 81.4173 295.993 80.776C295.993 80.126 295.803 79.6017 295.421 79.203C295.049 78.7957 294.568 78.592 293.978 78.592C293.389 78.592 292.904 78.7957 292.522 79.203C292.141 79.6017 291.95 80.126 291.95 80.776C291.95 81.2007 292.037 81.5777 292.21 81.907C292.384 82.2363 292.622 82.4963 292.925 82.687C293.237 82.869 293.588 82.96 293.978 82.96ZM299.109 84V77.552H300.344L300.461 78.774C300.686 78.3493 300.998 78.0157 301.397 77.773C301.804 77.5217 302.294 77.396 302.866 77.396V78.839H302.489C302.107 78.839 301.765 78.904 301.462 79.034C301.167 79.1553 300.929 79.3677 300.747 79.671C300.573 79.9657 300.487 80.3773 300.487 80.906V84H299.109ZM306.231 84.156C305.685 84.156 305.235 84.065 304.879 83.883C304.524 83.701 304.26 83.4627 304.086 83.168C303.913 82.8647 303.826 82.5353 303.826 82.18C303.826 81.556 304.069 81.062 304.554 80.698C305.04 80.334 305.733 80.152 306.634 80.152H308.324V80.035C308.324 79.5323 308.186 79.1553 307.908 78.904C307.64 78.6527 307.289 78.527 306.855 78.527C306.474 78.527 306.14 78.6223 305.854 78.813C305.577 78.995 305.408 79.268 305.347 79.632H303.969C304.013 79.164 304.169 78.7653 304.437 78.436C304.715 78.098 305.061 77.8423 305.477 77.669C305.902 77.487 306.366 77.396 306.868 77.396C307.77 77.396 308.467 77.6343 308.961 78.111C309.455 78.579 309.702 79.2203 309.702 80.035V84H308.506L308.389 82.895C308.207 83.2503 307.943 83.5493 307.596 83.792C307.25 84.0347 306.795 84.156 306.231 84.156ZM306.504 83.038C306.877 83.038 307.189 82.9513 307.44 82.778C307.7 82.596 307.9 82.3577 308.038 82.063C308.186 81.7683 308.277 81.4433 308.311 81.088H306.777C306.231 81.088 305.841 81.1833 305.607 81.374C305.382 81.5647 305.269 81.803 305.269 82.089C305.269 82.3837 305.378 82.6177 305.594 82.791C305.82 82.9557 306.123 83.038 306.504 83.038ZM313.948 82.024C313.61 82.024 313.298 81.985 313.012 81.907L312.453 82.453C312.548 82.5137 312.665 82.5657 312.804 82.609C312.943 82.6523 313.138 82.6913 313.389 82.726C313.64 82.7607 313.983 82.7953 314.416 82.83C315.274 82.908 315.894 83.116 316.275 83.454C316.656 83.7833 316.847 84.2253 316.847 84.78C316.847 85.1613 316.743 85.521 316.535 85.859C316.336 86.2057 316.019 86.483 315.586 86.691C315.161 86.9077 314.615 87.016 313.948 87.016C313.047 87.016 312.314 86.8427 311.751 86.496C311.196 86.158 310.919 85.6423 310.919 84.949C310.919 84.6803 310.988 84.4117 311.127 84.143C311.274 83.883 311.504 83.636 311.816 83.402C311.634 83.324 311.474 83.2417 311.335 83.155C311.205 83.0597 311.088 82.9643 310.984 82.869V82.557L312.102 81.413C311.599 80.9797 311.348 80.412 311.348 79.71C311.348 79.2853 311.448 78.8997 311.647 78.553C311.855 78.1977 312.154 77.916 312.544 77.708C312.934 77.5 313.402 77.396 313.948 77.396C314.312 77.396 314.65 77.448 314.962 77.552H317.367V78.462L316.223 78.527C316.431 78.8823 316.535 79.2767 316.535 79.71C316.535 80.1433 316.431 80.5333 316.223 80.88C316.024 81.2267 315.729 81.504 315.339 81.712C314.958 81.92 314.494 82.024 313.948 82.024ZM313.948 80.945C314.347 80.945 314.667 80.841 314.91 80.633C315.161 80.4163 315.287 80.113 315.287 79.723C315.287 79.3243 315.161 79.021 314.91 78.813C314.667 78.605 314.347 78.501 313.948 78.501C313.541 78.501 313.211 78.605 312.96 78.813C312.717 79.021 312.596 79.3243 312.596 79.723C312.596 80.113 312.717 80.4163 312.96 80.633C313.211 80.841 313.541 80.945 313.948 80.945ZM312.219 84.819C312.219 85.1917 312.384 85.469 312.713 85.651C313.042 85.8417 313.454 85.937 313.948 85.937C314.425 85.937 314.81 85.833 315.105 85.625C315.4 85.4257 315.547 85.157 315.547 84.819C315.547 84.5677 315.447 84.351 315.248 84.169C315.049 83.9957 314.672 83.8873 314.117 83.844C313.701 83.818 313.333 83.779 313.012 83.727C312.709 83.8917 312.501 84.0693 312.388 84.26C312.275 84.4507 312.219 84.637 312.219 84.819ZM324.055 84.156C323.509 84.156 323.059 84.065 322.703 83.883C322.348 83.701 322.084 83.4627 321.91 83.168C321.737 82.8647 321.65 82.5353 321.65 82.18C321.65 81.556 321.893 81.062 322.378 80.698C322.864 80.334 323.557 80.152 324.458 80.152H326.148V80.035C326.148 79.5323 326.01 79.1553 325.732 78.904C325.464 78.6527 325.113 78.527 324.679 78.527C324.298 78.527 323.964 78.6223 323.678 78.813C323.401 78.995 323.232 79.268 323.171 79.632H321.793C321.837 79.164 321.993 78.7653 322.261 78.436C322.539 78.098 322.885 77.8423 323.301 77.669C323.726 77.487 324.19 77.396 324.692 77.396C325.594 77.396 326.291 77.6343 326.785 78.111C327.279 78.579 327.526 79.2203 327.526 80.035V84H326.33L326.213 82.895C326.031 83.2503 325.767 83.5493 325.42 83.792C325.074 84.0347 324.619 84.156 324.055 84.156ZM324.328 83.038C324.701 83.038 325.013 82.9513 325.264 82.778C325.524 82.596 325.724 82.3577 325.862 82.063C326.01 81.7683 326.101 81.4433 326.135 81.088H324.601C324.055 81.088 323.665 81.1833 323.431 81.374C323.206 81.5647 323.093 81.803 323.093 82.089C323.093 82.3837 323.202 82.6177 323.418 82.791C323.644 82.9557 323.947 83.038 324.328 83.038ZM329.133 84V77.552H330.355L330.459 78.683C330.659 78.2843 330.949 77.9723 331.33 77.747C331.72 77.513 332.167 77.396 332.669 77.396C333.449 77.396 334.06 77.6387 334.502 78.124C334.953 78.6093 335.178 79.333 335.178 80.295V84H333.813V80.438C333.813 79.19 333.302 78.566 332.279 78.566C331.768 78.566 331.343 78.748 331.005 79.112C330.676 79.476 330.511 79.996 330.511 80.672V84H329.133ZM339.739 84.156C339.115 84.156 338.565 84.0087 338.088 83.714C337.612 83.4193 337.239 83.0163 336.97 82.505C336.702 81.9937 336.567 81.413 336.567 80.763C336.567 80.113 336.702 79.5367 336.97 79.034C337.239 78.5227 337.612 78.124 338.088 77.838C338.574 77.5433 339.128 77.396 339.752 77.396C340.264 77.396 340.71 77.4957 341.091 77.695C341.481 77.8943 341.785 78.176 342.001 78.54V74.64H343.379V84H342.144L342.001 82.999C341.793 83.3023 341.507 83.571 341.143 83.805C340.779 84.039 340.311 84.156 339.739 84.156ZM339.986 82.96C340.576 82.96 341.057 82.7563 341.429 82.349C341.811 81.9417 342.001 81.4173 342.001 80.776C342.001 80.126 341.811 79.6017 341.429 79.203C341.057 78.7957 340.576 78.592 339.986 78.592C339.397 78.592 338.912 78.7957 338.53 79.203C338.149 79.6017 337.958 80.126 337.958 80.776C337.958 81.2007 338.045 81.5777 338.218 81.907C338.392 82.2363 338.63 82.4963 338.933 82.687C339.245 82.869 339.596 82.96 339.986 82.96ZM351.33 84.156C350.706 84.156 350.156 84.0087 349.679 83.714C349.202 83.4193 348.83 83.0163 348.561 82.505C348.292 81.9937 348.158 81.413 348.158 80.763C348.158 80.113 348.292 79.5367 348.561 79.034C348.83 78.5227 349.202 78.124 349.679 77.838C350.164 77.5433 350.719 77.396 351.343 77.396C351.854 77.396 352.301 77.4957 352.682 77.695C353.072 77.8943 353.375 78.176 353.592 78.54V74.64H354.97V84H353.735L353.592 82.999C353.384 83.3023 353.098 83.571 352.734 83.805C352.37 84.039 351.902 84.156 351.33 84.156ZM351.577 82.96C352.166 82.96 352.647 82.7563 353.02 82.349C353.401 81.9417 353.592 81.4173 353.592 80.776C353.592 80.126 353.401 79.6017 353.02 79.203C352.647 78.7957 352.166 78.592 351.577 78.592C350.988 78.592 350.502 78.7957 350.121 79.203C349.74 79.6017 349.549 80.126 349.549 80.776C349.549 81.2007 349.636 81.5777 349.809 81.907C349.982 82.2363 350.221 82.4963 350.524 82.687C350.836 82.869 351.187 82.96 351.577 82.96ZM356.707 84V77.552H357.942L358.059 78.774C358.285 78.3493 358.597 78.0157 358.995 77.773C359.403 77.5217 359.892 77.396 360.464 77.396V78.839H360.087C359.706 78.839 359.364 78.904 359.06 79.034C358.766 79.1553 358.527 79.3677 358.345 79.671C358.172 79.9657 358.085 80.3773 358.085 80.906V84H356.707ZM364.484 84.156C363.869 84.156 363.314 84.0173 362.82 83.74C362.335 83.454 361.949 83.0597 361.663 82.557C361.377 82.0457 361.234 81.452 361.234 80.776C361.234 80.1 361.377 79.5107 361.663 79.008C361.958 78.4967 362.352 78.1023 362.846 77.825C363.34 77.539 363.891 77.396 364.497 77.396C365.113 77.396 365.663 77.539 366.148 77.825C366.642 78.1023 367.032 78.4967 367.318 79.008C367.613 79.5107 367.76 80.1 367.76 80.776C367.76 81.452 367.613 82.0457 367.318 82.557C367.032 83.0597 366.642 83.454 366.148 83.74C365.654 84.0173 365.1 84.156 364.484 84.156ZM364.484 82.973C364.814 82.973 365.117 82.8907 365.394 82.726C365.68 82.5613 365.91 82.3187 366.083 81.998C366.257 81.6687 366.343 81.2613 366.343 80.776C366.343 80.2907 366.257 79.8877 366.083 79.567C365.919 79.2377 365.693 78.9907 365.407 78.826C365.13 78.6613 364.827 78.579 364.497 78.579C364.168 78.579 363.86 78.6613 363.574 78.826C363.297 78.9907 363.072 79.2377 362.898 79.567C362.725 79.8877 362.638 80.2907 362.638 80.776C362.638 81.2613 362.725 81.6687 362.898 81.998C363.072 82.3187 363.297 82.5613 363.574 82.726C363.852 82.8907 364.155 82.973 364.484 82.973ZM369.25 86.86V77.552H370.485L370.628 78.553C370.836 78.2497 371.122 77.981 371.486 77.747C371.85 77.513 372.318 77.396 372.89 77.396C373.514 77.396 374.065 77.5433 374.541 77.838C375.018 78.1327 375.391 78.5357 375.659 79.047C375.937 79.5583 376.075 80.139 376.075 80.789C376.075 81.439 375.937 82.0197 375.659 82.531C375.391 83.0337 375.018 83.4323 374.541 83.727C374.065 84.013 373.51 84.156 372.877 84.156C372.375 84.156 371.928 84.0563 371.538 83.857C371.157 83.6577 370.854 83.376 370.628 83.012V86.86H369.25ZM372.643 82.96C373.233 82.96 373.718 82.7607 374.099 82.362C374.481 81.9547 374.671 81.426 374.671 80.776C374.671 80.3513 374.585 79.9743 374.411 79.645C374.238 79.3157 374 79.06 373.696 78.878C373.393 78.6873 373.042 78.592 372.643 78.592C372.054 78.592 371.569 78.7957 371.187 79.203C370.815 79.6103 370.628 80.1347 370.628 80.776C370.628 81.426 370.815 81.9547 371.187 82.362C371.569 82.7607 372.054 82.96 372.643 82.96ZM157.348 103.156C156.681 103.156 156.096 103.039 155.593 102.805C155.091 102.571 154.696 102.237 154.41 101.804C154.133 101.371 153.99 100.855 153.981 100.257H155.437C155.446 100.742 155.615 101.154 155.944 101.492C156.274 101.83 156.737 101.999 157.335 101.999C157.864 101.999 158.276 101.873 158.57 101.622C158.874 101.362 159.025 101.033 159.025 100.634C159.025 100.313 158.952 100.053 158.804 99.854C158.666 99.6547 158.471 99.49 158.219 99.36C157.977 99.23 157.695 99.113 157.374 99.009C157.054 98.905 156.716 98.7923 156.36 98.671C155.658 98.437 155.13 98.1337 154.774 97.761C154.428 97.3883 154.254 96.8987 154.254 96.292C154.246 95.7807 154.363 95.3343 154.605 94.953C154.857 94.5717 155.203 94.277 155.645 94.069C156.096 93.8523 156.62 93.744 157.218 93.744C157.808 93.744 158.323 93.8523 158.765 94.069C159.216 94.2857 159.567 94.589 159.818 94.979C160.07 95.3603 160.2 95.8067 160.208 96.318H158.752C158.752 96.084 158.692 95.863 158.57 95.655C158.449 95.4383 158.271 95.2607 158.037 95.122C157.803 94.9833 157.517 94.914 157.179 94.914C156.746 94.9053 156.386 95.0137 156.1 95.239C155.823 95.4643 155.684 95.7763 155.684 96.175C155.684 96.5303 155.788 96.8033 155.996 96.994C156.204 97.1847 156.49 97.345 156.854 97.475C157.218 97.5963 157.634 97.7393 158.102 97.904C158.553 98.0513 158.956 98.229 159.311 98.437C159.667 98.645 159.948 98.918 160.156 99.256C160.373 99.594 160.481 100.023 160.481 100.543C160.481 101.002 160.364 101.431 160.13 101.83C159.896 102.22 159.545 102.541 159.077 102.792C158.609 103.035 158.033 103.156 157.348 103.156ZM164.425 103L161.058 93.9H162.527L165.257 101.57L168 93.9H169.456L166.089 103H164.425ZM174.243 103.156C173.385 103.156 172.635 102.961 171.994 102.571C171.352 102.181 170.854 101.635 170.499 100.933C170.143 100.231 169.966 99.412 169.966 98.476C169.966 97.5487 170.148 96.7297 170.512 96.019C170.876 95.3083 171.391 94.7537 172.059 94.355C172.735 93.9477 173.532 93.744 174.451 93.744C175.491 93.744 176.357 93.9953 177.051 94.498C177.744 95.0007 178.195 95.694 178.403 96.578H176.843C176.704 96.0927 176.431 95.7113 176.024 95.434C175.616 95.1567 175.092 95.018 174.451 95.018C173.497 95.018 172.748 95.3257 172.202 95.941C171.656 96.5563 171.383 97.4057 171.383 98.489C171.383 99.5723 171.651 100.417 172.189 101.024C172.726 101.631 173.441 101.934 174.334 101.934C175.235 101.934 175.911 101.678 176.362 101.167C176.821 100.656 177.09 99.9753 177.168 99.126H174.698V98.06H178.559V103H177.298L177.181 101.661C176.877 102.138 176.496 102.506 176.037 102.766C175.577 103.026 174.979 103.156 174.243 103.156ZM179.412 104.534L180.166 101.466H181.531L180.335 104.534H179.412ZM186.16 103V93.9H189.345C190.055 93.9 190.645 94.0213 191.113 94.264C191.581 94.498 191.927 94.823 192.153 95.239C192.387 95.6463 192.504 96.11 192.504 96.63C192.504 97.124 192.391 97.579 192.166 97.995C191.949 98.4023 191.607 98.7273 191.139 98.97C190.671 99.2127 190.073 99.334 189.345 99.334H187.538V103H186.16ZM187.538 98.203H189.28C189.93 98.203 190.393 98.0643 190.671 97.787C190.957 97.501 191.1 97.1153 191.1 96.63C191.1 96.1273 190.957 95.7373 190.671 95.46C190.393 95.174 189.93 95.031 189.28 95.031H187.538V98.203ZM193.866 103V93.9H195.244L199.807 100.751V93.9H201.185V103H199.807L195.244 96.149V103H193.866ZM206.984 103.156C206.126 103.156 205.376 102.961 204.735 102.571C204.094 102.181 203.595 101.635 203.24 100.933C202.885 100.231 202.707 99.412 202.707 98.476C202.707 97.5487 202.889 96.7297 203.253 96.019C203.617 95.3083 204.133 94.7537 204.8 94.355C205.476 93.9477 206.273 93.744 207.192 93.744C208.232 93.744 209.099 93.9953 209.792 94.498C210.485 95.0007 210.936 95.694 211.144 96.578H209.584C209.445 96.0927 209.172 95.7113 208.765 95.434C208.358 95.1567 207.833 95.018 207.192 95.018C206.239 95.018 205.489 95.3257 204.943 95.941C204.397 96.5563 204.124 97.4057 204.124 98.489C204.124 99.5723 204.393 100.417 204.93 101.024C205.467 101.631 206.182 101.934 207.075 101.934C207.976 101.934 208.652 101.678 209.103 101.167C209.562 100.656 209.831 99.9753 209.909 99.126H207.439V98.06H211.3V103H210.039L209.922 101.661C209.619 102.138 209.237 102.506 208.778 102.766C208.319 103.026 207.721 103.156 206.984 103.156ZM212.153 104.534L212.907 101.466H214.272L213.076 104.534H212.153ZM221.098 103.156C220.249 103.156 219.573 102.918 219.07 102.441C218.576 101.964 218.329 101.293 218.329 100.426H219.707C219.707 100.859 219.811 101.219 220.019 101.505C220.236 101.791 220.587 101.934 221.072 101.934C221.549 101.934 221.887 101.8 222.086 101.531C222.285 101.254 222.385 100.903 222.385 100.478V93.9H223.763V100.478C223.763 101.336 223.525 101.999 223.048 102.467C222.571 102.926 221.921 103.156 221.098 103.156ZM225.604 103V93.9H228.789C229.5 93.9 230.089 94.0213 230.557 94.264C231.025 94.498 231.372 94.823 231.597 95.239C231.831 95.6463 231.948 96.11 231.948 96.63C231.948 97.124 231.835 97.579 231.61 97.995C231.393 98.4023 231.051 98.7273 230.583 98.97C230.115 99.2127 229.517 99.334 228.789 99.334H226.982V103H225.604ZM226.982 98.203H228.724C229.374 98.203 229.838 98.0643 230.115 97.787C230.401 97.501 230.544 97.1153 230.544 96.63C230.544 96.1273 230.401 95.7373 230.115 95.46C229.838 95.174 229.374 95.031 228.724 95.031H226.982V98.203ZM237.262 103.156C236.404 103.156 235.655 102.961 235.013 102.571C234.372 102.181 233.874 101.635 233.518 100.933C233.163 100.231 232.985 99.412 232.985 98.476C232.985 97.5487 233.167 96.7297 233.531 96.019C233.895 95.3083 234.411 94.7537 235.078 94.355C235.754 93.9477 236.552 93.744 237.47 93.744C238.51 93.744 239.377 93.9953 240.07 94.498C240.764 95.0007 241.214 95.694 241.422 96.578H239.862C239.724 96.0927 239.451 95.7113 239.043 95.434C238.636 95.1567 238.112 95.018 237.47 95.018C236.517 95.018 235.767 95.3257 235.221 95.941C234.675 96.5563 234.402 97.4057 234.402 98.489C234.402 99.5723 234.671 100.417 235.208 101.024C235.746 101.631 236.461 101.934 237.353 101.934C238.255 101.934 238.931 101.678 239.381 101.167C239.841 100.656 240.109 99.9753 240.187 99.126H237.717V98.06H241.578V103H240.317L240.2 101.661C239.897 102.138 239.516 102.506 239.056 102.766C238.597 103.026 237.999 103.156 237.262 103.156ZM249.49 103.156C248.875 103.156 248.32 103.017 247.826 102.74C247.341 102.454 246.955 102.06 246.669 101.557C246.383 101.046 246.24 100.452 246.24 99.776C246.24 99.1 246.383 98.5107 246.669 98.008C246.964 97.4967 247.358 97.1023 247.852 96.825C248.346 96.539 248.896 96.396 249.503 96.396C250.118 96.396 250.669 96.539 251.154 96.825C251.648 97.1023 252.038 97.4967 252.324 98.008C252.619 98.5107 252.766 99.1 252.766 99.776C252.766 100.452 252.619 101.046 252.324 101.557C252.038 102.06 251.648 102.454 251.154 102.74C250.66 103.017 250.105 103.156 249.49 103.156ZM249.49 101.973C249.819 101.973 250.123 101.891 250.4 101.726C250.686 101.561 250.916 101.319 251.089 100.998C251.262 100.669 251.349 100.261 251.349 99.776C251.349 99.2907 251.262 98.8877 251.089 98.567C250.924 98.2377 250.699 97.9907 250.413 97.826C250.136 97.6613 249.832 97.579 249.503 97.579C249.174 97.579 248.866 97.6613 248.58 97.826C248.303 97.9907 248.077 98.2377 247.904 98.567C247.731 98.8877 247.644 99.2907 247.644 99.776C247.644 100.261 247.731 100.669 247.904 100.998C248.077 101.319 248.303 101.561 248.58 101.726C248.857 101.891 249.161 101.973 249.49 101.973ZM254.256 103V96.552H255.491L255.608 97.774C255.834 97.3493 256.146 97.0157 256.544 96.773C256.952 96.5217 257.441 96.396 258.013 96.396V97.839H257.636C257.255 97.839 256.913 97.904 256.609 98.034C256.315 98.1553 256.076 98.3677 255.894 98.671C255.721 98.9657 255.634 99.3773 255.634 99.906V103H254.256ZM266.474 103.156C265.616 103.156 264.866 102.961 264.225 102.571C263.584 102.181 263.085 101.635 262.73 100.933C262.375 100.231 262.197 99.412 262.197 98.476C262.197 97.5487 262.379 96.7297 262.743 96.019C263.107 95.3083 263.623 94.7537 264.29 94.355C264.966 93.9477 265.763 93.744 266.682 93.744C267.722 93.744 268.589 93.9953 269.282 94.498C269.975 95.0007 270.426 95.694 270.634 96.578H269.074C268.935 96.0927 268.662 95.7113 268.255 95.434C267.848 95.1567 267.323 95.018 266.682 95.018C265.729 95.018 264.979 95.3257 264.433 95.941C263.887 96.5563 263.614 97.4057 263.614 98.489C263.614 99.5723 263.883 100.417 264.42 101.024C264.957 101.631 265.672 101.934 266.565 101.934C267.466 101.934 268.142 101.678 268.593 101.167C269.052 100.656 269.321 99.9753 269.399 99.126H266.929V98.06H270.79V103H269.529L269.412 101.661C269.109 102.138 268.727 102.506 268.268 102.766C267.809 103.026 267.211 103.156 266.474 103.156ZM272.463 103V93.9H273.841V103H272.463ZM275.687 103V93.9H281.394V95.018H277.065V97.891H280.653V98.996H277.065V103H275.687ZM288.27 104.885C287.785 104.417 287.347 103.867 286.957 103.234C286.576 102.61 286.268 101.917 286.034 101.154C285.809 100.383 285.696 99.555 285.696 98.671C285.696 97.787 285.809 96.9637 286.034 96.201C286.268 95.4297 286.576 94.732 286.957 94.108C287.347 93.4753 287.785 92.925 288.27 92.457H289.648V92.587C288.868 93.393 288.24 94.316 287.763 95.356C287.295 96.396 287.061 97.501 287.061 98.671C287.061 99.841 287.295 100.946 287.763 101.986C288.24 103.026 288.872 103.949 289.661 104.755V104.885H288.27ZM290.984 103V96.552H292.206L292.323 97.462C292.531 97.1327 292.804 96.8727 293.142 96.682C293.488 96.4913 293.887 96.396 294.338 96.396C295.36 96.396 296.071 96.799 296.47 97.605C296.704 97.2323 297.016 96.9377 297.406 96.721C297.804 96.5043 298.233 96.396 298.693 96.396C299.499 96.396 300.131 96.6387 300.591 97.124C301.05 97.6093 301.28 98.333 301.28 99.295V103H299.902V99.438C299.902 98.19 299.425 97.566 298.472 97.566C297.986 97.566 297.588 97.748 297.276 98.112C296.972 98.476 296.821 98.996 296.821 99.672V103H295.443V99.438C295.443 98.19 294.962 97.566 294 97.566C293.523 97.566 293.129 97.748 292.817 98.112C292.513 98.476 292.362 98.996 292.362 99.672V103H290.984ZM305.076 103.156C304.53 103.156 304.079 103.065 303.724 102.883C303.369 102.701 303.104 102.463 302.931 102.168C302.758 101.865 302.671 101.535 302.671 101.18C302.671 100.556 302.914 100.062 303.399 99.698C303.884 99.334 304.578 99.152 305.479 99.152H307.169V99.035C307.169 98.5323 307.03 98.1553 306.753 97.904C306.484 97.6527 306.133 97.527 305.7 97.527C305.319 97.527 304.985 97.6223 304.699 97.813C304.422 97.995 304.253 98.268 304.192 98.632H302.814C302.857 98.164 303.013 97.7653 303.282 97.436C303.559 97.098 303.906 96.8423 304.322 96.669C304.747 96.487 305.21 96.396 305.713 96.396C306.614 96.396 307.312 96.6343 307.806 97.111C308.3 97.579 308.547 98.2203 308.547 99.035V103H307.351L307.234 101.895C307.052 102.25 306.788 102.549 306.441 102.792C306.094 103.035 305.639 103.156 305.076 103.156ZM305.349 102.038C305.722 102.038 306.034 101.951 306.285 101.778C306.545 101.596 306.744 101.358 306.883 101.063C307.03 100.768 307.121 100.443 307.156 100.088H305.622C305.076 100.088 304.686 100.183 304.452 100.374C304.227 100.565 304.114 100.803 304.114 101.089C304.114 101.384 304.222 101.618 304.439 101.791C304.664 101.956 304.968 102.038 305.349 102.038ZM309.53 103L311.818 99.776L309.53 96.552H310.999L312.728 99.022L314.444 96.552H315.926L313.638 99.776L315.926 103H314.444L312.728 100.53L310.999 103H309.53ZM316.28 104.534L317.034 101.466H318.399L317.203 104.534H316.28ZM326.135 103.156C325.528 103.156 324.978 103.048 324.484 102.831C323.999 102.606 323.609 102.294 323.314 101.895C323.028 101.496 322.885 101.028 322.885 100.491C322.885 99.945 323.037 99.4553 323.34 99.022C323.652 98.5887 324.064 98.294 324.575 98.138C324.116 97.956 323.76 97.6917 323.509 97.345C323.258 96.9897 323.132 96.5997 323.132 96.175C323.132 95.733 323.249 95.33 323.483 94.966C323.717 94.5933 324.055 94.2987 324.497 94.082C324.948 93.8567 325.494 93.744 326.135 93.744C326.776 93.744 327.318 93.8567 327.76 94.082C328.211 94.2987 328.553 94.5933 328.787 94.966C329.021 95.33 329.138 95.733 329.138 96.175C329.138 96.591 329.008 96.981 328.748 97.345C328.497 97.7003 328.141 97.9647 327.682 98.138C328.193 98.3027 328.601 98.6017 328.904 99.035C329.216 99.4597 329.372 99.945 329.372 100.491C329.372 101.028 329.229 101.496 328.943 101.895C328.657 102.294 328.267 102.606 327.773 102.831C327.288 103.048 326.742 103.156 326.135 103.156ZM326.135 97.696C326.638 97.696 327.032 97.566 327.318 97.306C327.613 97.046 327.76 96.7123 327.76 96.305C327.76 95.8457 327.617 95.4947 327.331 95.252C327.045 95.0093 326.646 94.888 326.135 94.888C325.624 94.888 325.225 95.0093 324.939 95.252C324.653 95.4947 324.51 95.8457 324.51 96.305C324.51 96.7123 324.653 97.046 324.939 97.306C325.225 97.566 325.624 97.696 326.135 97.696ZM326.135 101.986C326.759 101.986 327.227 101.839 327.539 101.544C327.851 101.241 328.007 100.855 328.007 100.387C328.007 99.867 327.838 99.4683 327.5 99.191C327.171 98.905 326.716 98.762 326.135 98.762C325.554 98.762 325.095 98.905 324.757 99.191C324.419 99.4683 324.25 99.867 324.25 100.387C324.25 100.855 324.406 101.241 324.718 101.544C325.039 101.839 325.511 101.986 326.135 101.986ZM334.73 103.156C333.906 103.156 333.196 102.961 332.598 102.571C332.008 102.172 331.553 101.622 331.233 100.92C330.921 100.209 330.765 99.386 330.765 98.45C330.765 97.514 330.921 96.695 331.233 95.993C331.553 95.2823 332.008 94.732 332.598 94.342C333.196 93.9433 333.906 93.744 334.73 93.744C335.553 93.744 336.259 93.9433 336.849 94.342C337.438 94.732 337.889 95.2823 338.201 95.993C338.521 96.695 338.682 97.514 338.682 98.45C338.682 99.386 338.521 100.209 338.201 100.92C337.889 101.622 337.438 102.172 336.849 102.571C336.259 102.961 335.553 103.156 334.73 103.156ZM334.73 101.921C335.224 101.921 335.661 101.782 336.043 101.505C336.433 101.228 336.736 100.829 336.953 100.309C337.169 99.789 337.278 99.1693 337.278 98.45C337.278 97.7307 337.169 97.111 336.953 96.591C336.736 96.071 336.433 95.6723 336.043 95.395C335.661 95.1177 335.224 94.979 334.73 94.979C334.227 94.979 333.785 95.1177 333.404 95.395C333.022 95.6723 332.723 96.071 332.507 96.591C332.29 97.111 332.182 97.7307 332.182 98.45C332.182 99.1693 332.29 99.789 332.507 100.309C332.723 100.829 333.022 101.228 333.404 101.505C333.785 101.782 334.227 101.921 334.73 101.921ZM343.857 103.156C343.034 103.156 342.323 102.961 341.725 102.571C341.136 102.172 340.681 101.622 340.36 100.92C340.048 100.209 339.892 99.386 339.892 98.45C339.892 97.514 340.048 96.695 340.36 95.993C340.681 95.2823 341.136 94.732 341.725 94.342C342.323 93.9433 343.034 93.744 343.857 93.744C344.681 93.744 345.387 93.9433 345.976 94.342C346.566 94.732 347.016 95.2823 347.328 95.993C347.649 96.695 347.809 97.514 347.809 98.45C347.809 99.386 347.649 100.209 347.328 100.92C347.016 101.622 346.566 102.172 345.976 102.571C345.387 102.961 344.681 103.156 343.857 103.156ZM343.857 101.921C344.351 101.921 344.789 101.782 345.17 101.505C345.56 101.228 345.864 100.829 346.08 100.309C346.297 99.789 346.405 99.1693 346.405 98.45C346.405 97.7307 346.297 97.111 346.08 96.591C345.864 96.071 345.56 95.6723 345.17 95.395C344.789 95.1177 344.351 94.979 343.857 94.979C343.355 94.979 342.913 95.1177 342.531 95.395C342.15 95.6723 341.851 96.071 341.634 96.591C341.418 97.111 341.309 97.7307 341.309 98.45C341.309 99.1693 341.418 99.789 341.634 100.309C341.851 100.829 342.15 101.228 342.531 101.505C342.913 101.782 343.355 101.921 343.857 101.921ZM348.669 103L350.957 99.776L348.669 96.552H350.138L351.867 99.022L353.583 96.552H355.065L352.777 99.776L355.065 103H353.583L351.867 100.53L350.138 103H348.669ZM360.386 103V101.18H355.823V100.088L360.165 93.9H361.751V99.984H363.025V101.18H361.751V103H360.386ZM357.318 99.984H360.464V95.421L357.318 99.984ZM367.979 103.156C367.155 103.156 366.445 102.961 365.847 102.571C365.257 102.172 364.802 101.622 364.482 100.92C364.17 100.209 364.014 99.386 364.014 98.45C364.014 97.514 364.17 96.695 364.482 95.993C364.802 95.2823 365.257 94.732 365.847 94.342C366.445 93.9433 367.155 93.744 367.979 93.744C368.802 93.744 369.508 93.9433 370.098 94.342C370.687 94.732 371.138 95.2823 371.45 95.993C371.77 96.695 371.931 97.514 371.931 98.45C371.931 99.386 371.77 100.209 371.45 100.92C371.138 101.622 370.687 102.172 370.098 102.571C369.508 102.961 368.802 103.156 367.979 103.156ZM367.979 101.921C368.473 101.921 368.91 101.782 369.292 101.505C369.682 101.228 369.985 100.829 370.202 100.309C370.418 99.789 370.527 99.1693 370.527 98.45C370.527 97.7307 370.418 97.111 370.202 96.591C369.985 96.071 369.682 95.6723 369.292 95.395C368.91 95.1177 368.473 94.979 367.979 94.979C367.476 94.979 367.034 95.1177 366.653 95.395C366.271 95.6723 365.972 96.071 365.756 96.591C365.539 97.111 365.431 97.7307 365.431 98.45C365.431 99.1693 365.539 99.789 365.756 100.309C365.972 100.829 366.271 101.228 366.653 101.505C367.034 101.782 367.476 101.921 367.979 101.921ZM377.106 103.156C376.283 103.156 375.572 102.961 374.974 102.571C374.385 102.172 373.93 101.622 373.609 100.92C373.297 100.209 373.141 99.386 373.141 98.45C373.141 97.514 373.297 96.695 373.609 95.993C373.93 95.2823 374.385 94.732 374.974 94.342C375.572 93.9433 376.283 93.744 377.106 93.744C377.93 93.744 378.636 93.9433 379.225 94.342C379.815 94.732 380.265 95.2823 380.577 95.993C380.898 96.695 381.058 97.514 381.058 98.45C381.058 99.386 380.898 100.209 380.577 100.92C380.265 101.622 379.815 102.172 379.225 102.571C378.636 102.961 377.93 103.156 377.106 103.156ZM377.106 101.921C377.6 101.921 378.038 101.782 378.419 101.505C378.809 101.228 379.113 100.829 379.329 100.309C379.546 99.789 379.654 99.1693 379.654 98.45C379.654 97.7307 379.546 97.111 379.329 96.591C379.113 96.071 378.809 95.6723 378.419 95.395C378.038 95.1177 377.6 94.979 377.106 94.979C376.604 94.979 376.162 95.1177 375.78 95.395C375.399 95.6723 375.1 96.071 374.883 96.591C374.667 97.111 374.558 97.7307 374.558 98.45C374.558 99.1693 374.667 99.789 374.883 100.309C375.1 100.829 375.399 101.228 375.78 101.505C376.162 101.782 376.604 101.921 377.106 101.921ZM382.542 105.86V96.552H383.777L383.92 97.553C384.128 97.2497 384.414 96.981 384.778 96.747C385.142 96.513 385.61 96.396 386.182 96.396C386.806 96.396 387.357 96.5433 387.833 96.838C388.31 97.1327 388.683 97.5357 388.951 98.047C389.229 98.5583 389.367 99.139 389.367 99.789C389.367 100.439 389.229 101.02 388.951 101.531C388.683 102.034 388.31 102.432 387.833 102.727C387.357 103.013 386.802 103.156 386.169 103.156C385.667 103.156 385.22 103.056 384.83 102.857C384.449 102.658 384.146 102.376 383.92 102.012V105.86H382.542ZM385.935 101.96C386.525 101.96 387.01 101.761 387.391 101.362C387.773 100.955 387.963 100.426 387.963 99.776C387.963 99.3513 387.877 98.9743 387.703 98.645C387.53 98.3157 387.292 98.06 386.988 97.878C386.685 97.6873 386.334 97.592 385.935 97.592C385.346 97.592 384.861 97.7957 384.479 98.203C384.107 98.6103 383.92 99.1347 383.92 99.776C383.92 100.426 384.107 100.955 384.479 101.362C384.861 101.761 385.346 101.96 385.935 101.96ZM389.916 103L392.204 99.776L389.916 96.552H391.385L393.114 99.022L394.83 96.552H396.312L394.024 99.776L396.312 103H394.83L393.114 100.53L391.385 103H389.916ZM397.018 104.885V104.755C397.798 103.949 398.426 103.026 398.903 101.986C399.38 100.946 399.618 99.841 399.618 98.671C399.618 97.501 399.38 96.396 398.903 95.356C398.435 94.316 397.811 93.393 397.031 92.587V92.457H398.409C398.886 92.925 399.319 93.4753 399.709 94.108C400.099 94.732 400.407 95.4297 400.632 96.201C400.866 96.9637 400.983 97.787 400.983 98.671C400.983 99.555 400.866 100.383 400.632 101.154C400.407 101.917 400.099 102.61 399.709 103.234C399.319 103.867 398.886 104.417 398.409 104.885H397.018Z" fill="#3B3F58"/>
</svg>
